<svg id="Capa_1" data-name="Capa 1" xmlns="http://www.w3.org/2000/svg" viewBox="0 0 239.38 309.4"><defs><style>.cls-1{fill:#0783be;}.cls-2{fill:#50add5;}.cls-3{fill:#5b7897;}.cls-4{fill:#f5f5f5;}.cls-5{fill:#0e87c0;}.cls-6{fill:#fafbfc;}.cls-7{fill:#d6d6d6;}.cls-8{fill:#d0cfd0;}.cls-9{fill:#ddd;}.cls-10{fill:#dcdbdb;}.cls-11{fill:#e4e4e4;}.cls-12{fill:#e6e6e6;}.cls-13{fill:#e2e2e2;}.cls-14{fill:#ececec;}.cls-15{fill:#e8e8e8;}.cls-16{fill:#d8d8d8;}.cls-17{fill:#f0eff0;}.cls-18{fill:#d5d4d5;}.cls-19{fill:#f1f1f1;}.cls-20{fill:#fbfcfc;}.cls-21{fill:#ebeaea;}.cls-22{fill:#e1e1e1;}.cls-23{fill:#e6e5e5;}.cls-24{fill:#d1d1d1;}.cls-25{fill:#80c8e5;}.cls-26{fill:#f2f2f2;}.cls-27{fill:#e0dfe0;}</style></defs><path class="cls-1" d="M804.58,651.14c1.17,7.48,2.61,14.93,3.44,22.44a132.42,132.42,0,0,1,.69,17.81c-.15,5.48-1,10.94-1.57,16.41a4,4,0,0,0,0,.48c0,.27-.08.54-.11.82s-.11.57-.17.86l-.2.48v.48l-.15.68-.25,1.21-.31,1,0,.72-.09.35-.45,1.77-.81,2.86c31.71-4.76,71.36-28.81,85-76,7.44-25.79,5.43-51.06-6-75.36s-29.73-41.8-54.28-52.79a6.25,6.25,0,0,1,1.64.26c45.37,14.85,78,57.31,80.77,105a113.62,113.62,0,0,1-5.61,42.52A116.65,116.65,0,0,1,797.54,743c-2.24,0-3.36.78-4,2.72l-.86,1.46-.39.73-.16.27-.39.64-.26.45c-.15.25-.31.5-.47.75l-.47.76-.26.71-.8.92a162.37,162.37,0,0,1-14.8,19.25c-3.35,3.69-6.86,7.24-10.29,10.87a10.4,10.4,0,0,0-.71.9h-1.92c.34-.39.67-.79,1-1.15a199.13,199.13,0,0,0,17-18.67,136.36,136.36,0,0,0,18.85-31.16,111.63,111.63,0,0,0,8.88-40.53c.15-4.34-.08-8.7-.22-13a59.37,59.37,0,0,0-.5-6c-.58-4.38-1.18-8.76-1.88-13.12-.44-2.74-1.09-5.45-1.65-8.17Z" transform="translate(-682.28 -473.99)"/><path class="cls-2" d="M803.3,651.59c.56,2.72,1.21,5.43,1.65,8.17.7,4.36,1.3,8.74,1.88,13.12a59.37,59.37,0,0,1,.5,6c.14,4.35.37,8.71.22,13a111.63,111.63,0,0,1-8.88,40.53,136.36,136.36,0,0,1-18.85,31.16,199.13,199.13,0,0,1-17,18.67c-.37.36-.7.76-1,1.15h-1.92c.51-1.33,1-2.67,1.55-4A217.69,217.69,0,0,0,771.24,751c.06-.23.08-.47.12-.7l.24-1.45.45-1.19.1-.4c.09-.34.17-.68.25-1l.24-1,.4-1.7.54-2.25c-38.7-8.14-67.18-29.47-85.47-64.51l8.84-5.16c19.15,28.74,45.73,45,80,49.08l.17-2.8.2-1.49,0-1.2,0-.47-.06-1,.24-.72,0-1.2,0-1.43c.1-1.7.24-3.4.3-5.11a213.6,213.6,0,0,0-1.22-30.76c-.46-4.37-1-8.72-1.57-13.08,6.87-2.33,13.75-4.63,20.61-7C798.28,653.61,800.78,652.56,803.3,651.59Z" transform="translate(-682.28 -473.99)"/><path class="cls-3" d="M803.3,651.59c-2.52,1-5,2-7.58,2.91-6.86,2.36-13.74,4.66-20.61,7l-11.3,3.18c.64,2.68,1.23,5.31,1.91,7.92,1.6,6.1,3.25,12.19,4.88,18.28.11.42.21.85.3,1.28.17.76.24,1.54-.65,1.9s-1.42-.14-1.88-.85c-3.58-5.54-7.22-11-10.75-16.6-1.71-2.7-3.24-5.51-4.78-8.31a1.34,1.34,0,0,0-1.63-.8c-4,.74-7.9,1.53-11.86,2.21-3.5.6-7,1.11-10.55,1.59-3.29.44-6.59.82-9.89,1.18-2,.22-4,.35-6,.53a1.42,1.42,0,0,1-1.72-1.23c-.21-1.06.51-1.4,1.33-1.61,5.82-1.46,11.66-2.84,17.46-4.4,6.21-1.66,12.37-3.5,18.39-5.21-3.62-8.82-7.2-17.55-10.85-26.43-1.75.36-3.8.83-5.87,1.2-5.93,1.06-11.86,2.19-17.82,3.07-5,.74-10,1.18-15,1.75l-3.89.45c-.19,0-.4,0-.6,0-.91,0-1.73-.38-1.6-1.3a2.4,2.4,0,0,1,1.43-1.45,41.13,41.13,0,0,1,4-1c7.69-2,15.38-4.07,23.05-6.18,4.4-1.22,8.75-2.61,13.13-3.92.41-.12.81-.27,1.2-.4-.55-2.51-1.15-4.91-1.59-7.34-.55-3-1.09-6.05-1.44-9.1-.43-3.78-.71-7.57-1-11.36-.12-1.91-.08-3.84,0-5.76A110.17,110.17,0,0,1,733.2,577a106.71,106.71,0,0,1,11.19-31.65,134.28,134.28,0,0,1,20.45-28c13.7-14.61,29.58-26.47,46.56-36.94,3.23-2,6.52-3.88,9.79-5.82l.73-.4c.7-.35,1.48-.34,1.77.37a2,2,0,0,1-.28,1.77c-1.19,1.23-2.55,2.31-3.83,3.45-14.23,12.76-27.08,26.74-37.6,42.76a148.74,148.74,0,0,0-21.46,50c-1.06,4.81-1.85,9.69-2.55,14.57a96.86,96.86,0,0,0-1,10.76c-.21,6.22-.2,12.45-.26,18.67a15.2,15.2,0,0,0,.29,2c.41-.13.78-.22,1.13-.37,2.77-1.14,5.53-2.3,8.29-3.46a8.33,8.33,0,0,0,.9-.55l1.36-.49c5.82-3,11.67-5.88,17.43-9A65.32,65.32,0,0,0,791.8,601l1.2-.77c5.91-4.15,11.4-8.72,14.24-15.61,2.31-5.62,1.26-10.89-2.45-15.57-1.64-2.07-3.64-3.87-5.48-5.77-.49-.52-1.15-.92-.65-1.81s1-.72,1.78-.64a85.17,85.17,0,0,1,16.83,3.49,30.06,30.06,0,0,1,11.56,6.21,11.77,11.77,0,0,1,4.17,9.33,17.72,17.72,0,0,1-3.82,9.76c-1.14,1.55-2.4,3-3.48,4.37,3.81,1.1,7.75,2.13,11.62,3.37a24.34,24.34,0,0,1,11,6.79,11.11,11.11,0,0,1,2.95,7c.21,4.79-1.94,8.59-4.76,12.17-5.29,6.73-12.22,11.47-19.36,16a167.17,167.17,0,0,1-21.73,11.22,5.57,5.57,0,0,0-.88.58Zm-34.16-26.32c-3.68,1.13-7.37,2.26-11,3.44a.86.86,0,0,0-.38.74c.32,2.71.65,5.42,1.06,8.12.65,4.26,1.35,8.52,2.06,12.78.31,1.86.72,3.7,1.12,5.72l11.74-4.41,1.28-.5a8.7,8.7,0,0,0,1.13-.35c5.3-2.28,10.63-4.5,15.88-6.89,3-1.35,5.78-3,8.67-4.52l1.21-.72c2.12-1.26,4.3-2.45,6.36-3.81a66.94,66.94,0,0,0,12.28-10.13,25.52,25.52,0,0,0,5-7.47,14.55,14.55,0,0,0,.82-9.48c-.94-3.67-3.07-6.52-5.66-9.25-1.21,1-2.34,1.93-3.55,2.8a139.29,139.29,0,0,1-18.38,11.19c-1,.49-1.9,1.1-2.86,1.66l-1.28.5c-4.74,2.08-9.45,4.22-14.22,6.22-3.31,1.38-6.69,2.57-10,3.85Z" transform="translate(-682.28 -473.99)"/><path class="cls-4" d="M807.06,709.1l.11-.82c1.63-.35,3.29-.59,4.88-1.06a93.64,93.64,0,0,0,28.7-13.66c4.29-3.07,8.32-6.54,12.3-10a79.38,79.38,0,0,0,13-15.2A102.07,102.07,0,0,0,878,645a93.81,93.81,0,0,0,4.47-17.42,102.06,102.06,0,0,0,.73-19.46,81.63,81.63,0,0,0-2.58-17.28,98.76,98.76,0,0,0-17.38-35.51c-1.85-2.43-3.93-4.7-6-7-1.38-1.55-2.79-3.07-4.28-4.51a86.15,86.15,0,0,0-18.22-13.63c-4.56-2.54-9.32-4.71-14-6.94a5.79,5.79,0,0,1-3.74-6c.14-2.86.16-5.74.26-8.61a2.53,2.53,0,0,1,2.18-2.37,34.43,34.43,0,0,1,5.14-.94c5.49-.61,10.59.94,15.55,3,4.29,1.82,8.64,3.55,12.77,5.71A135.71,135.71,0,0,1,866,521.84a110.45,110.45,0,0,1,10.92,8.49c3.81,3.33,7.46,6.87,11,10.49a111.69,111.69,0,0,1,15.7,20.85,124.71,124.71,0,0,1,11.4,25A112.1,112.1,0,0,1,919.92,607c.59,4.4,1.12,8.82,1.41,13.25a105.51,105.51,0,0,1,.23,12.32,132.9,132.9,0,0,1-3.21,23,131.26,131.26,0,0,1-8.05,23.72A104.32,104.32,0,0,1,899.86,698c-2.93,4.11-6.1,8-9.32,11.94a82.27,82.27,0,0,1-6.68,7.17,126.28,126.28,0,0,1-22.7,17.4A127.9,127.9,0,0,1,835,746.3,110.92,110.92,0,0,1,815,751c-4.4.58-8.82,1.09-13.25,1.41-3.66.27-7.34.21-11,.26a5.19,5.19,0,0,1-1.26-.28c.27-.31.54-.61.8-.92,1,.09,2.06.25,3.09.24,1.59,0,3.17-.12,4.76-.23,3.4-.22,6.83-.29,10.21-.75,4.55-.61,9.08-1.41,13.58-2.33a133.4,133.4,0,0,0,18.8-5.79l.72-.48h.48l.72-.48,1-.24.72-.48,1-.24,1.2-.72,1.44-.48.72-.48,1.68-.72.72-.48,4.08-1.92.48-.48,1.68-.72.48-.48.72-.24.48-.48.72-.24.48-.48.72-.24.48-.48,1.44-.72.48-.48h.24l.48-.48h.24l.48-.48H865l.48-.48h.24l.48-.48h.24l.48-.48.72-.48.48-.24.48-.48,1-.72h.24l.72-.72h.24l.72-.72,1-.72.48-.24.72-.72,1.2-1,.24-.24,1.44-1.2,1.68-1.44a4.17,4.17,0,0,0,2.64-2.4,13.89,13.89,0,0,0,2-1.4c1.08-1.08,2.06-2.26,3.08-3.4l2.64-2.88,1.68-1.92,1.2-1.44.48-.72.72-.72,1-1.2.24-.48.48-.48,1-1.2v-.24l.72-.72v-.24l.48-.48.72-1,.48-.72.72-1v-.24l.48-.48V696l.48-.48v-.24l.48-.48v-.24l.48-.48v-.24l.48-.48v-.24l.48-.72.24-.48.48-.48.24-.72.48-.48.24-.72.48-.48.24-.72.72-1,.48-1.2c.22-.2.52-.36.65-.61,1-1.89,2-3.79,3-5.72a25.07,25.07,0,0,0,.94-2.55l1.35-3.44a134.61,134.61,0,0,0,7.21-23.06,103.92,103.92,0,0,0,2.24-17.66c.16-.31.46-.62.46-.93q0-5.07,0-10.15c0-.31-.3-.61-.46-.92-.16-2-.32-4-.47-6a81.71,81.71,0,0,0-2.9-16.23c-1.75-6.15-3.86-12.19-5.9-18.25a11.37,11.37,0,0,0-1.53-2.43V578l-.48-1.92-.24-.48-3.6-7.2-1-1.68-.24-.48-.72-1.2-.24-.48-.72-1.2a7.29,7.29,0,0,0-.5-1.33,116.06,116.06,0,0,0-15-19.82,150,150,0,0,0-15.1-14A110.76,110.76,0,0,0,852,515.47c-5.55-2.7-11.35-4.88-17-7.41-4-1.79-8-1.65-12.15-.67a2.84,2.84,0,0,0-2.48,2.63c-.1,3-.19,6-.23,9a1.94,1.94,0,0,0,.34,1.31,11.31,11.31,0,0,0,2.51,2c2.1,1.12,4.28,2.08,6.43,3.1A97.94,97.94,0,0,1,845.3,535a89,89,0,0,1,15.56,14.55A105.32,105.32,0,0,1,872,565.37a96.36,96.36,0,0,1,7.13,15.82c1,2.88,1.79,5.84,2.67,8.77v.48l.48,1.68v.48l.24.72v.48l.24.72V595l.48,2.4v.48l.24,1v.48l.24,1.2v.72l.24,1.44v.72l.24,1.68v1l.24,2.88v9.84l-.24,2.88v1l-.24,1.92V625l-.24,1.68v.48l-.48,2.64v.48L883,631v.48l-1,4.32v.48a2.45,2.45,0,0,0-.24.52,96.61,96.61,0,0,1-13.45,31.38,87.3,87.3,0,0,1-16.13,18.65c-3,2.57-6.13,5.08-9.34,7.42a82.1,82.1,0,0,1-16.75,9.42c-3.52,1.48-7.16,2.68-10.79,3.9-2.21.74-4.49,1.28-6.74,1.91h-.48Z" transform="translate(-682.28 -473.99)"/><path class="cls-5" d="M793,600.26l-1.2.77c-.3-1.56-.61-3.13-.88-4.7a140,140,0,0,1-2.19-20.92c-.09-4.3.14-8.62.41-12.92a82.33,82.33,0,0,1,4.21-20.7A100.23,100.23,0,0,1,811,510.41c.69-.84,1.35-1.69,2-2.53l-.24-.25a6.53,6.53,0,0,0-.85.5c-5,4.12-10.22,8.08-15.07,12.41A102.43,102.43,0,0,0,782.09,537c-9.86,13.65-14.81,29-15.5,45.69a147.54,147.54,0,0,0,1,22.73c.32,2.77.77,5.52,1.16,8.28l-1.36.49a186.35,186.35,0,0,1-2.24-27.71,85.21,85.21,0,0,1,22.19-58.21,154,154,0,0,1,26.18-23c.69-.49,1.38-.74,2,0s.33,1.52-.27,2.2a109.09,109.09,0,0,0-15.18,21.94A89.11,89.11,0,0,0,790.28,565c-.74,11.58.48,23,2.57,34.35Zm20.6-93.11-.36.14.06.09.31-.22s.08,0,.1-.06,0-.05,0-.08Z" transform="translate(-682.28 -473.99)"/><path class="cls-6" d="M793.55,745.69c.63-1.94,1.75-2.68,4-2.72a116.65,116.65,0,0,0,108.57-79.84,113.62,113.62,0,0,0,5.61-42.52c-2.72-47.71-35.4-90.17-80.77-105a6.25,6.25,0,0,0-1.64-.26c24.55,11,42.86,28.45,54.28,52.79s13.42,49.57,6,75.36c-13.63,47.21-53.28,71.26-85,76,.28-1,.54-1.93.81-2.86,1.83-.34,3.69-.59,5.5-1A105.15,105.15,0,0,0,860,688.36c2.4-2.33,4.58-4.89,6.77-7.43a96.24,96.24,0,0,0,11.92-17.6,106.15,106.15,0,0,0,9.74-25.92,103.2,103.2,0,0,0,2.7-20.31,101.54,101.54,0,0,0-.91-17.42,104.72,104.72,0,0,0-27.42-57.6,90.37,90.37,0,0,0-13-11.61c-1.77-1.27-3.61-2.43-5.42-3.64h0l-.49-.47-9.6-5.52-4.32-1.93-2.16-1-2.4-1-1.44-.72-1.44-1.68v-2.16l1.2-1,1.2-.25h1l1.2.25,1.44.47,1.44.48,6.47,2.17c2.89,1.24,5.81,2.41,8.66,3.75a114.91,114.91,0,0,1,17.58,10.2,122.22,122.22,0,0,1,18.87,16.33,126.17,126.17,0,0,1,14,17.87,118.37,118.37,0,0,1,12.89,26.8A111.12,111.12,0,0,1,914,615.88c.4,5,1,10.06.48,15.13-.45,4.55-.7,9.12-1.24,13.66A98.44,98.44,0,0,1,909,662.91a116.29,116.29,0,0,1-10.24,23.17,117.64,117.64,0,0,1-20.87,26.5,123,123,0,0,1-17.54,13.82,118.56,118.56,0,0,1-26,12.66,107.57,107.57,0,0,1-25,5.69C804.14,745.24,798.84,745.39,793.55,745.69Z" transform="translate(-682.28 -473.99)"/><path class="cls-7" d="M793.55,745.69c5.29-.3,10.59-.45,15.86-.94a107.57,107.57,0,0,0,25-5.69,118.56,118.56,0,0,0,26-12.66,123,123,0,0,0,17.54-13.82,117.64,117.64,0,0,0,20.87-26.5A116.29,116.29,0,0,0,909,662.91a98.44,98.44,0,0,0,4.19-18.24c.54-4.54.79-9.11,1.24-13.66.5-5.07-.08-10.09-.48-15.13a111.12,111.12,0,0,0-5.58-26.33,118.37,118.37,0,0,0-12.89-26.8,126.17,126.17,0,0,0-14-17.87,122.22,122.22,0,0,0-18.87-16.33,114.91,114.91,0,0,0-17.58-10.2c-2.85-1.34-5.77-2.51-8.66-3.75a13.3,13.3,0,0,1,2.29.33,87.11,87.11,0,0,1,21.41,10.51,130.53,130.53,0,0,1,19.4,15.84,81,81,0,0,1,6.23,6.73c3.21,3.9,6.37,7.84,9.33,11.93a102.05,102.05,0,0,1,10.67,18.95,106.55,106.55,0,0,1,4.47,11.46c1.59,5.25,3,10.58,4,15.95a132.08,132.08,0,0,1,1.81,14,84.37,84.37,0,0,1,0,9.41c-.07,2.94-.18,5.89-.49,8.82-.37,3.58-.82,7.18-1.5,10.72a112.08,112.08,0,0,1-5.66,19.47,120.45,120.45,0,0,1-10.84,21.55,116.44,116.44,0,0,1-13.88,17.75,158.68,158.68,0,0,1-12,11.3,108.56,108.56,0,0,1-16.91,11.82,123.61,123.61,0,0,1-20.09,9.23,110,110,0,0,1-21.27,5.33c-3.93.55-7.87,1.08-11.82,1.37-2.94.22-5.92,0-8.88,0C793,746.66,793.27,746.18,793.55,745.69Z" transform="translate(-682.28 -473.99)"/><path class="cls-8" d="M844.33,526.83c1.81,1.21,3.65,2.37,5.42,3.64a90.37,90.37,0,0,1,13,11.61,104.77,104.77,0,0,1,27.42,57.6,101.54,101.54,0,0,1,.91,17.42,103.2,103.2,0,0,1-2.7,20.31,106.15,106.15,0,0,1-9.74,25.92,96.24,96.24,0,0,1-11.92,17.6c-2.19,2.54-4.37,5.1-6.77,7.43a105.15,105.15,0,0,1-49.09,27.25c-1.81.44-3.67.69-5.5,1l.45-1.77c.31.1.66.34.93.27,4.19-1.07,8.44-2,12.55-3.33A97.67,97.67,0,0,0,836,704.57a112.21,112.21,0,0,0,16.45-11,22.21,22.21,0,0,0,2-2.1h.24l1-1h.24l2.88-2.64,1.68-1.68,1.44-1.68.48-.48c1.87-2.16,3.84-4.24,5.61-6.48a98.61,98.61,0,0,0,13.23-22.38,111.55,111.55,0,0,0,7.18-24,132.89,132.89,0,0,0,1.55-15.51,42,42,0,0,0-.22-5.6c-.28-3.76-.53-7.53-1-11.27a89.6,89.6,0,0,0-4.35-18.42,101.53,101.53,0,0,0-7.75-17.34,107.31,107.31,0,0,0-9.79-14.55,20,20,0,0,0-2.1-2v-.24l-1.68-1.92-.24-.24-1.44-1.68-.24-.24a5.23,5.23,0,0,0-.71-1.05c-1.37-1.33-2.72-2.68-4.16-3.92-3.43-2.94-6.91-5.8-10.35-8.72A19.27,19.27,0,0,1,844.33,526.83Z" transform="translate(-682.28 -473.99)"/><path class="cls-9" d="M827.77,518l2.16,1a2.19,2.19,0,0,0,1.21,2.17c2.75,1.62,5.53,3.17,8.24,4.85a106.67,106.67,0,0,1,18.54,14.21c2.7,2.63,5.12,5.57,7.55,8.46a92.5,92.5,0,0,1,11,16.71A106.75,106.75,0,0,1,886,591a102.77,102.77,0,0,1,2.43,18.63,84.1,84.1,0,0,1-.24,10c-.32,4.19-.74,8.39-1.43,12.53a104.93,104.93,0,0,1-20.23,45.39,91.47,91.47,0,0,1-14.54,15A107.64,107.64,0,0,1,832.52,705a100.69,100.69,0,0,1-19.09,7.24c-2.45.65-5,1-7.46,1.52.1-.33.21-.66.31-1,1-.18,2-.32,2.92-.55A108.94,108.94,0,0,0,836,702.17a105.16,105.16,0,0,0,20.14-14.23,80.91,80.91,0,0,0,10.55-11.86,100,100,0,0,0,8.37-13.2,110.69,110.69,0,0,0,6.72-15.45,116,116,0,0,0,4.18-16.15,111.47,111.47,0,0,0,1.58-17.66,32.62,32.62,0,0,0-.22-3.69c-.31-3.68-.38-7.4-1-11a150.86,150.86,0,0,0-3.38-15.34A96.55,96.55,0,0,0,873,560.93,104.46,104.46,0,0,0,858.57,542a78.47,78.47,0,0,0-6.57-5.9,97.39,97.39,0,0,0-16.24-10.89c-2.1-1.14-4.26-2.18-6.3-3.42C827.58,520.63,827.19,519.53,827.77,518Z" transform="translate(-682.28 -473.99)"/><path class="cls-10" d="M792.69,747.15c3,0,5.94.18,8.88,0,3.95-.29,7.89-.82,11.82-1.37a110,110,0,0,0,21.27-5.33,123.61,123.61,0,0,0,20.09-9.23,108.56,108.56,0,0,0,16.91-11.82,158.68,158.68,0,0,0,12-11.3,116.44,116.44,0,0,0,13.88-17.75,120.45,120.45,0,0,0,10.84-21.55,112.08,112.08,0,0,0,5.66-19.47c.68-3.54,1.13-7.14,1.5-10.72.31-2.93.42-5.88.49-8.82a84.37,84.37,0,0,0,0-9.41,132.08,132.08,0,0,0-1.81-14c-1.07-5.37-2.44-10.7-4-15.95a106.55,106.55,0,0,0-4.47-11.46,102.05,102.05,0,0,0-10.67-18.95c-3-4.09-6.12-8-9.33-11.93a81,81,0,0,0-6.23-6.73,130.53,130.53,0,0,0-19.4-15.84,87.11,87.11,0,0,0-21.41-10.51,13.3,13.3,0,0,0-2.29-.33l-6.47-2.17c.37-1,1.12-1,2-.8a86.27,86.27,0,0,1,25.16,11,125.73,125.73,0,0,1,24.39,19.83,8.38,8.38,0,0,0,1.23.89h0c1,1.21,2,2.39,3,3.63,3.6,4.61,7.33,9.12,10.72,13.87a104.22,104.22,0,0,1,10,18,117.27,117.27,0,0,1,6.09,16.72,98.15,98.15,0,0,1,3.3,16.09c.44,4.14,1,8.29,1.13,12.44a91.5,91.5,0,0,1-.47,12c-.5,5-1.24,9.92-2.11,14.83a105.51,105.51,0,0,1-8.51,25.54,110.81,110.81,0,0,1-9,15.92,124.15,124.15,0,0,1-14.57,18c-3.37,3.38-6.93,6.6-10.61,9.64a112.71,112.71,0,0,1-11.4,8.45A152.34,152.34,0,0,1,846,736.41a100.21,100.21,0,0,1-12.71,5.19,129.09,129.09,0,0,1-14.85,4c-4.81,1-9.73,1.41-14.61,2a53.72,53.72,0,0,1-5.81.46c-1.91,0-3.82-.12-5.72-.2Z" transform="translate(-682.28 -473.99)"/><path class="cls-11" d="M827.77,518c-.58,1.58-.19,2.68,1.69,3.82,2,1.24,4.2,2.28,6.3,3.42A97.39,97.39,0,0,1,852,536.08a78.47,78.47,0,0,1,6.57,5.9A104.46,104.46,0,0,1,873,560.93a96.55,96.55,0,0,1,9.88,22.64,150.86,150.86,0,0,1,3.38,15.34c.63,3.62.7,7.34,1,11a32.62,32.62,0,0,1,.22,3.69,111.47,111.47,0,0,1-1.58,17.66,116,116,0,0,1-4.18,16.15A110.69,110.69,0,0,1,875,662.88a100,100,0,0,1-8.37,13.2,80.91,80.91,0,0,1-10.55,11.86A105.16,105.16,0,0,1,836,702.17a108.94,108.94,0,0,1-26.77,10.09c-1,.23-2,.37-2.92.55.08-.4.17-.81.25-1.21a6.16,6.16,0,0,0,1.55,0c3.35-.86,6.73-1.65,10-2.71a99.25,99.25,0,0,0,20.4-9.07,95.39,95.39,0,0,0,19.14-14.59c2-2,3.85-4.25,5.72-6.41a82.4,82.4,0,0,0,10.13-14.74,107.62,107.62,0,0,0,10.8-29.17,98.93,98.93,0,0,0,2.25-20.21c0-3.18-.19-6.36-.47-9.53-.3-3.4-.65-6.81-1.26-10.16a101,101,0,0,0-4.7-17.12,98.74,98.74,0,0,0-10-20,85.35,85.35,0,0,0-14.14-17c-3.56-3.17-7.29-6.17-11.11-9A96.19,96.19,0,0,0,829,522.79c-2.43-1.18-4.27-2.71-3.66-5.79Z" transform="translate(-682.28 -473.99)"/><path class="cls-12" d="M827.05,511.48l-1.2-.25c.38-.47.67-1.13,1.17-1.37a6.7,6.7,0,0,1,4.61-.64c1,.23,1.91.54,2.86.82l.72.24,1.2.48.72.24.48.24.72.24.48.24.72.24.48.24c1.47.61,3,1.17,4.4,1.85a129.82,129.82,0,0,1,18.84,10.89,142.13,142.13,0,0,1,17.47,14.43c1.61,1.56,3.11,3.21,4.63,4.86a61.4,61.4,0,0,1,4.37,4.9c3.4,4.61,6.8,9.23,9.95,14a109.45,109.45,0,0,1,12.76,26.7c1.71,5.32,2.89,10.82,4.18,16.28a91.63,91.63,0,0,1,2.06,19.39c.08,4.41-.32,8.83-.68,13.23-.28,3.39-.69,6.79-1.3,10.15a89.27,89.27,0,0,1-4.48,16.44c-1.44,3.72-2.81,7.47-4.47,11.09a107.22,107.22,0,0,1-11.2,19.47c-3.71,5-7.61,9.81-11.74,14.43a110.53,110.53,0,0,1-14.66,13.35,118.63,118.63,0,0,1-17.83,11.55c-3.54,1.85-7.14,3.59-10.81,5.15-3.48,1.48-7.08,2.68-10.65,3.94-2.2.77-4.45,1.42-6.68,2.13h-.48l-.48.24h-.48l-2.64.72h-.48l-.72.24h-.48l-.72.24h-.48l-.72.24H816l-1,.24h-.48l-1,.24h-.48l-1,.24h-.72l-1,.24h-.72l-1.2.24h-1l-1,.24h-1.44l-1.2.24h-2.16l-1,.48h-.24c-.45-1.39-1.37-.65-2.16-.48h-6.72l-.28-.56.26-.45a4.77,4.77,0,0,0,1.22.27c3.39,0,6.78,0,10.16-.25a89.73,89.73,0,0,0,9.83-1c4.33-.76,8.64-1.73,12.91-2.8a110.49,110.49,0,0,0,20.41-7.43,116,116,0,0,0,20.1-12c4.41-3.31,8.69-6.84,12.79-10.54a94.2,94.2,0,0,0,8.48-8.93c3-3.53,5.91-7.2,8.62-11a100.09,100.09,0,0,0,10.9-18.94c1.94-4.54,3.88-9.1,5.41-13.79a95.18,95.18,0,0,0,4.48-20.22c.47-4.82.93-9.65,1.14-14.48a61.67,61.67,0,0,0-.45-8.58c-.41-4.18-.75-8.39-1.5-12.52a122.93,122.93,0,0,0-5.4-19.78,117.12,117.12,0,0,0-13.15-25.84c-2.93-4.34-6.16-8.5-9.47-12.57a95.05,95.05,0,0,0-7.92-8.63,117.44,117.44,0,0,0-9.86-8.66c-4.56-3.52-9.25-6.9-14.09-10a80.66,80.66,0,0,0-15.42-7.89c-3-1.11-5.9-2.22-8.88-3.22C830,509.25,827.79,510,827.05,511.48Z" transform="translate(-682.28 -473.99)"/><path class="cls-13" d="M827.05,511.48c.74-1.45,3-2.23,5-1.55,3,1,5.93,2.11,8.88,3.22A80.66,80.66,0,0,1,856.36,521c4.84,3.13,9.53,6.51,14.09,10a117.44,117.44,0,0,1,9.86,8.66,95.05,95.05,0,0,1,7.92,8.63c3.31,4.07,6.54,8.23,9.47,12.57a117.12,117.12,0,0,1,13.15,25.84,122.93,122.93,0,0,1,5.4,19.78c.75,4.13,1.09,8.34,1.5,12.52a61.67,61.67,0,0,1,.45,8.58c-.21,4.83-.67,9.66-1.14,14.48a95.18,95.18,0,0,1-4.48,20.22c-1.53,4.69-3.47,9.25-5.41,13.79a100.09,100.09,0,0,1-10.9,18.94c-2.71,3.77-5.6,7.44-8.62,11a94.2,94.2,0,0,1-8.48,8.93c-4.1,3.7-8.38,7.23-12.79,10.54a116,116,0,0,1-20.1,12A110.49,110.49,0,0,1,825.87,745c-4.27,1.07-8.58,2-12.91,2.8a89.73,89.73,0,0,1-9.83,1c-3.38.21-6.77.2-10.16.25a4.77,4.77,0,0,1-1.22-.27l.39-.64a5.17,5.17,0,0,0,1.37.43,92.27,92.27,0,0,0,15.84-1c4.39-.68,8.79-1.34,13.12-2.31A109.24,109.24,0,0,0,845,737.55a123.29,123.29,0,0,0,20.25-11.78,113,113,0,0,0,14.48-12.07c3.87-3.94,7.56-8.09,11.14-12.31a108.27,108.27,0,0,0,13.19-20,125.61,125.61,0,0,0,7.69-18.17,97.44,97.44,0,0,0,4.54-19.72c.51-4.45,1-8.93,1.15-13.4a123.06,123.06,0,0,0-.46-13,117.13,117.13,0,0,0-1.53-11.67,112.22,112.22,0,0,0-5.39-19.18,125.21,125.21,0,0,0-11.38-22.89,134.74,134.74,0,0,0-12.9-17.16,32.4,32.4,0,0,0-3.08-2.76h0a5.06,5.06,0,0,0-.63-1c-3-2.84-5.83-5.8-9-8.44-3.7-3.12-7.55-6.09-11.49-8.91a96.12,96.12,0,0,0-21.82-11.75c-2.65-1-5.34-1.86-8-2.69a2.57,2.57,0,0,0-3.3,1.31Z" transform="translate(-682.28 -473.99)"/><path class="cls-14" d="M822.49,514.6l1.44,1.68c-.36,1.75-.7,3.57,1,4.84a19.67,19.67,0,0,0,3.88,2.35,88.47,88.47,0,0,1,17.45,10.12c3.76,2.86,7.42,5.9,10.88,9.11a85.8,85.8,0,0,1,6.22,7.08,84.19,84.19,0,0,1,9.95,14.58,102.41,102.41,0,0,1,8.44,20.42,105.07,105.07,0,0,1,4.1,24.5,94.1,94.1,0,0,1-.9,18.59A116.69,116.69,0,0,1,880.65,646a103.69,103.69,0,0,1-8.31,18.8,95.2,95.2,0,0,1-14.54,19.31,96.22,96.22,0,0,1-8.13,7.21,89.57,89.57,0,0,1-15.33,10.12,99.67,99.67,0,0,1-21,8.2c-2.18.58-4.43.89-6.65,1.33v-.48l.92-.24h.48l.72-.24h.48l.48-.24h.48l.48-.24h.48l.48-.24h.48l.48-.24h.48l.48-.24h.48l1.2-.72h1.2c1.62-.53,3.25-1,4.86-1.61.26-.09.44-.36.66-.55h.72l2.88-1.44h.72l1-.72H828l1.92-1.2,2.4-1,2.88-1.68h.24l1.44-1h.24l1-.72h.24l1-.72h.24L840,697h.24l2.64-1.92h.24l.48-.48h.24l1.44-1.2h.24l.72-.72h.24l1.92-1.68h.24l1-1h.24l1.2-1.2h.24l1.68-1.68h.24a2.91,2.91,0,0,0,.72-.38c1.9-1.88,3.81-3.75,5.67-5.68a25.63,25.63,0,0,0,1.77-2.34v-.24l1.2-1.2v-.24l1.92-2.16v-.24l2.16-2.64v-.24l1.2-1.44v-.24l.48-.48v-.24l.48-.48v-.24l.48-.48V668l1.2-1.68V666l.72-1v-.24l1.2-1.92.24-.72c.16-.1.4-.15.47-.29,1.06-2.14,2.09-4.29,3.13-6.43v-.72c.24-.24.58-.43.69-.71.53-1.27,1-2.57,1.47-3.85v-.72l.72-1.2,1-3.84,1-1.92V642l.48-1.2v-.48l.24-.48v-.48l.24-.48v-.48l.24-.48v-.48l.24-.48v-.48l.24-.72v-.48l.24-.48v-.72l.24-.48v-.48l.24-.72v-.72l.24-.72v-.48l.24-.72v-2.16l.48-1-.24-1,.48-1.2-.24-1.2.48-1.68-.24-1.68a2.79,2.79,0,0,0,.46-.91c.06-.81,0-1.63,0-2.45v-5.52c0-.82,0-1.65,0-2.46a2.85,2.85,0,0,0-.46-.9l.24-1.68-.48-1.68v-1c.32-.48.51-.94-.24-1.2v-2.88l-.24-.72v-.72l-.24-1v-.72l-.48-.72V595l-.24-.72v-.48l-.24-.72V591.4l-.48-1.68v-.48l-.24-.48v-.48l-.24-.48v-.48l-.48-1.2v-.48l-.48-1.2V584c-.53-1.63-1-3.25-1.61-4.87-.08-.25-.36-.44-.55-.65v-.72c-.35-.93-.65-1.88-1-2.79a7.68,7.68,0,0,0-.87-1.29v-.72l-1-1.44-.48-1.68-1.68-2.88v-.24l-1.44-2.4V564L870,560.68v-.24l-.48-.48v-.24l-1.92-2.64v-.24l-1.2-1.44v-.24L865,553.48v-.24l-.72-.72v-.24l-1-1v-.24l-1.2-1.2v-.24l-1.2-1.2v-.24l-2.64-2.64-.24-.48-4.32-4.32h-.24l-3.36-3.12h-.24l-1-1h-.24l-1-1h-.24l-.72-.72h-.24l-.72-.72h-.24l-.72-.72h-.24l-.48-.48h-.24l-4.08-2.88h-.24l-1-.72h-.24l-1-.72h-.24l-1.44-1h-.24c-.1-.17-.15-.41-.29-.48-2.14-1.05-4.29-2.09-6.43-3.12l-1.2-.24a20.91,20.91,0,0,0-1.88-1.29C822.05,520.75,820.87,517.77,822.49,514.6Z" transform="translate(-682.28 -473.99)"/><path class="cls-15" d="M806.68,710.92c2.22-.44,4.47-.75,6.65-1.33a99.67,99.67,0,0,0,21-8.2,89.57,89.57,0,0,0,15.33-10.12,96.22,96.22,0,0,0,8.13-7.21,95.2,95.2,0,0,0,14.54-19.31,103.69,103.69,0,0,0,8.31-18.8,116.69,116.69,0,0,0,4.26-18.08,94.1,94.1,0,0,0,.9-18.59,105.07,105.07,0,0,0-4.1-24.5,102.41,102.41,0,0,0-8.44-20.42,84.19,84.19,0,0,0-9.95-14.58,85.8,85.8,0,0,0-6.22-7.08c-3.46-3.21-7.12-6.25-10.88-9.11a88.47,88.47,0,0,0-17.45-10.12,19.67,19.67,0,0,1-3.88-2.35c-1.66-1.27-1.32-3.09-1-4.84l1.44.72c-.61,3.08,1.23,4.61,3.66,5.79a96.19,96.19,0,0,1,15.88,9.06c3.82,2.84,7.55,5.84,11.11,9a85.35,85.35,0,0,1,14.14,17,98.74,98.74,0,0,1,10,20,101,101,0,0,1,4.7,17.12c.61,3.35,1,6.76,1.26,10.16.28,3.17.48,6.35.47,9.53a98.93,98.93,0,0,1-2.25,20.21,107.62,107.62,0,0,1-10.8,29.17,82.4,82.4,0,0,1-10.13,14.74c-1.87,2.16-3.7,4.38-5.72,6.41A95.39,95.39,0,0,1,838.5,699.8a99.25,99.25,0,0,1-20.4,9.07c-3.29,1.06-6.67,1.85-10,2.71a6.16,6.16,0,0,1-1.55,0Z" transform="translate(-682.28 -473.99)"/><path class="cls-16" d="M806,713.8c2.49-.5,5-.87,7.46-1.52A100.69,100.69,0,0,0,832.52,705,107.64,107.64,0,0,0,852,692.58a91.47,91.47,0,0,0,14.54-15,104.93,104.93,0,0,0,20.23-45.39c.69-4.14,1.11-8.34,1.43-12.53a84.1,84.1,0,0,0,.24-10A102.77,102.77,0,0,0,886,591a106.75,106.75,0,0,0-9.5-25.72,92.5,92.5,0,0,0-11-16.71c-2.43-2.89-4.85-5.83-7.55-8.46a106.67,106.67,0,0,0-18.54-14.21c-2.71-1.68-5.49-3.23-8.24-4.85a2.19,2.19,0,0,1-1.21-2.17l4.32,1.93a5.1,5.1,0,0,0,.93,1.16c2.47,1.72,5,3.36,7.48,5.09A121.12,121.12,0,0,1,860,541.4a7.75,7.75,0,0,0,1.14.8l.24.24,1.44,1.68.24.24a2.29,2.29,0,0,0,1.68,1.92v.24a2.78,2.78,0,0,0,.29.63c2,2.59,4.07,5.11,5.93,7.78a101.49,101.49,0,0,1,13,26.16A86.52,86.52,0,0,1,888,598.48c.46,4.14.93,8.29,1.14,12.44a65.55,65.55,0,0,1-.22,9c-.37,4.3-.77,8.62-1.53,12.87a97,97,0,0,1-5.4,18.79A109.52,109.52,0,0,1,873.94,668a99.88,99.88,0,0,1-9.74,13.41,29.63,29.63,0,0,0-1.87,2.67l-.48.48-1.44,1.68-1.68,1.68a4.93,4.93,0,0,0-2.88,2.64h-.24l-1,1h-.24c-1.42,1.06-2.88,2.08-4.26,3.2a103.79,103.79,0,0,1-37.46,18.48c-2.22.56-4.5.91-6.76,1.36Z" transform="translate(-682.28 -473.99)"/><path class="cls-17" d="M860.89,732.52l-.72.24-.48.48-.72.24-.48.48-.72.24-.48.48-1.68.72-.48.48-4.08,1.92-.72.48-1.68.72-.72.48-1.44.48-1.2.72-1,.24-.72.48-1,.24-.72.48h-.48l-.72.48a133.4,133.4,0,0,1-18.8,5.79c-4.5.92-9,1.72-13.58,2.33-3.38.46-6.81.53-10.21.75-1.59.11-3.17.22-4.76.23-1,0-2.06-.15-3.09-.24l.26-.71c4-.08,7.91,0,11.85-.26,3.37-.18,6.74-.48,10.07-1a116.85,116.85,0,0,0,20.27-4.86,129.59,129.59,0,0,0,43.74-24.75,7.1,7.1,0,0,0,1-1.3h.24l2.4-2.4h.24a6.91,6.91,0,0,0,1-.71q1.74-1.68,3.44-3.44a8.16,8.16,0,0,0,.79-1.13v-.24l2.4-2.4V708A8.64,8.64,0,0,0,889.4,707c1-1.17,2-2.41,2.93-3.61a126.84,126.84,0,0,0,23.1-45c1.34-5,2.24-10.23,3.26-15.37a14.55,14.55,0,0,0,0-2.88v-.48c.89-.54.5-1.24.24-1.92v-.48c.16-.27.45-.53.46-.81.11-2.53.25-5.07.24-7.6,0-3.61-.13-7.22-.24-10.83,0-.31-.3-.62-.46-.92v-.48c.26-.69.65-1.38-.24-1.92v-.48a3.09,3.09,0,0,0,.21-1q-.42-3-.93-6a118.77,118.77,0,0,0-6.84-24c-.66-1.65-1.2-3.34-1.8-5a11.37,11.37,0,0,1,1.53,2.43c2,6.06,4.15,12.1,5.9,18.25a81.71,81.71,0,0,1,2.9,16.23c.15,2,.31,4,.47,6v12a103.92,103.92,0,0,1-2.24,17.66,134.61,134.61,0,0,1-7.21,23.06l-1.35,3.44c-.22.2-.52.36-.64.61-1,2.1-2.06,4.22-3.07,6.34-.31.63-.57,1.28-.85,1.93l-.48,1.2-.72,1-.24.72-.48.48-.24.72-.48.48-.24.72-.48.48-.24.48-.48.72v.24l-.48.48v.24l-.48.48v.24l-.48.48v.24l-.48.48v.24l-.48.48V697l-.72,1-.48.72-.72,1-.48.48v.24l-.72.72v.24l-1,1.2-.48.48-.24.48-1,1.2-.72.72-.48.72-1.2,1.44a2.28,2.28,0,0,0-1.68,1.92,4.93,4.93,0,0,0-2.64,2.88,6.85,6.85,0,0,0-1.05.7c-1,.93-1.91,1.88-2.85,2.84-.4.4-.76.84-1.14,1.26l-2.64,2.4L876.49,721l-1.44,1.2-.24.24-1.2,1-.72.72-.48.24-1,.72-.72.72h-.24l-.72.72h-.24l-1,.72-.48.48-.48.24-.72.48-.48.48h-.24l-.48.48h-.24l-.48.48h-.24l-.48.48H864l-.48.48h-.24l-.48.48-1.44.72Z" transform="translate(-682.28 -473.99)"/><path class="cls-14" d="M877.45,718.6a7.1,7.1,0,0,1-1,1.3,129.59,129.59,0,0,1-43.74,24.75,116.85,116.85,0,0,1-20.27,4.86c-3.33.5-6.7.8-10.07,1-3.94.21-7.9.18-11.85.26L791,750l.75-.19h6.72c.54,1,1.45.27,2.16.48h.24l1-.48H804c.48.31.93.51,1.2-.24h1.44l1-.24h1c.48.31.93.51,1.2-.24h.72l1-.24h.72l1-.24h.48l1-.24h.48l1-.24h.48l.72-.24h.48l.72-.24h.48l.72-.24h.48l2.64-.72h.48l.48-.24h.48a1.72,1.72,0,0,0,.63,0c4.54-1.45,9.13-2.77,13.61-4.4a101.69,101.69,0,0,0,21.24-10.57c4.84-3.18,9.46-6.71,14.15-10.11C875.05,720.51,876.24,719.54,877.45,718.6Z" transform="translate(-682.28 -473.99)"/><path class="cls-18" d="M805.93,714.52c2.26-.45,4.54-.8,6.76-1.36a103.79,103.79,0,0,0,37.46-18.48c1.38-1.12,2.84-2.14,4.26-3.2a22.21,22.21,0,0,1-2,2.1,112.21,112.21,0,0,1-16.45,11,97.67,97.67,0,0,1-16.63,7.24c-4.11,1.34-8.36,2.26-12.55,3.33-.27.07-.62-.17-.93-.27Z" transform="translate(-682.28 -473.99)"/><path class="cls-19" d="M808.09,710.2h-.48l-.72-.24c.06-.29.11-.58.17-.86l1,.38Z" transform="translate(-682.28 -473.99)"/><path class="cls-15" d="M791.77,749.8,791,750c.16-.25.32-.5.47-.75Z" transform="translate(-682.28 -473.99)"/><path class="cls-17" d="M806.89,710l.72.24-.92.24Z" transform="translate(-682.28 -473.99)"/><path class="cls-20" d="M777.09,717.92l-.17,2.8c-34.24-4.13-60.82-20.34-80-49.08l-8.84,5.16c18.29,35,46.77,56.37,85.47,64.51-.18.73-.36,1.49-.54,2.25a6,6,0,0,1-1.2-.06c-4.47-1.13-9-2.12-13.4-3.45a118,118,0,0,1-26.27-11.77,109,109,0,0,1-19.49-14.59A148.49,148.49,0,0,1,701,701.22,135.91,135.91,0,0,1,692.18,689c-2.09-3.15-3.85-6.51-5.76-9.78L685.7,678a3.72,3.72,0,0,1,1.43-3.84l9.13-5.27,3.1,1.19.71,1,1.45,2.41c3,3.88,5.87,8,9.2,11.58a129.59,129.59,0,0,0,10.79,10.16,87.67,87.67,0,0,0,16,10.78,102.64,102.64,0,0,0,21.15,8.55A88.17,88.17,0,0,0,777.09,717.92Z" transform="translate(-682.28 -473.99)"/><path class="cls-21" d="M771.6,748.83c-1.37-.36-2.73-.76-4.12-1.08a131.14,131.14,0,0,1-24.27-8.29,126.81,126.81,0,0,1-24.81-14.77c-3.47-2.65-6.74-5.58-10-8.49a118.31,118.31,0,0,1-20.33-24.45c-1.92-3-4-6-5.06-9.31-1.42-4.46-.88-9.11,2.56-12.7,2.3-2.4,5.15-4.1,8.77-4a18.67,18.67,0,0,1,6.8,1c2.53,1.05,4.15,3.08,5.62,5.2a93.86,93.86,0,0,0,14.22,16,90.34,90.34,0,0,0,24.37,15.81,94.49,94.49,0,0,0,24.19,7.17c2.67.4,5.36.64,8,1l0,1.2c-3.34-.44-6.7-.73-10-1.35a89.49,89.49,0,0,1-17.88-5.1,132.18,132.18,0,0,1-13.21-6.17,90.18,90.18,0,0,1-16.58-11.84,94.51,94.51,0,0,1-10.71-11.39,77.48,77.48,0,0,0-5.7-6.89c-3-3-6.88-3.8-11.05-3.13-2.4.39-3.95,2.06-5.65,3.6-2.94,2.68-4.14,9.69-1.77,13.47s4.74,7.74,7.3,11.49a120,120,0,0,0,12.27,14.91c1.73,1.83,3.56,3.56,5.45,5.21,3.3,2.88,6.59,5.78,10,8.45a111.28,111.28,0,0,0,15.35,9.9,134.6,134.6,0,0,0,19.17,8.64,127.75,127.75,0,0,0,17.49,4.77Z" transform="translate(-682.28 -473.99)"/><path class="cls-22" d="M687.13,674.19A3.72,3.72,0,0,0,685.7,678c-.25.4-.75.85-.69,1.2a13.47,13.47,0,0,0,1.12,4.34c2.21,3.81,4.62,7.53,7.07,11.2a121,121,0,0,0,20.38,22.51c3.64,3.07,7.36,6.07,11.23,8.85a112.58,112.58,0,0,0,19.55,11.26A108.06,108.06,0,0,0,763.25,744c3,.74,6.1,1.46,9.15,2.18-.08.34-.16.68-.25,1a14.54,14.54,0,0,0-2.18-.78,121.33,121.33,0,0,1-25.49-8.35,126.14,126.14,0,0,1-20.79-12,135.27,135.27,0,0,1-21.29-18.76c-1.16-1.26-2.29-2.55-3.36-3.88a138.18,138.18,0,0,1-12.41-17.67c-1.33-2.29-2.65-4.59-2.16-7.48.58-3.51,1.9-6.57,4.81-8.74a8.67,8.67,0,0,1,6.75-1.75c4.54.7,7.65,3.4,10.34,6.88a115.16,115.16,0,0,0,7.48,9c2.75,2.88,5.77,5.5,8.78,8.11a79.6,79.6,0,0,0,14.2,9.64A100.63,100.63,0,0,0,765.19,712c4,.81,8.07,1.22,12.11,1.81l.06,1c-3.38-.49-6.78-.83-10.12-1.48a99.48,99.48,0,0,1-23.49-7.52,2.89,2.89,0,0,0-.94-.12,105.08,105.08,0,0,1-19.57-12.1c-2-1.54-3.76-3.29-5.63-4.94q-2.16-2.26-4.33-4.52c-.09-.08-.31,0-.47,0l-7.92-9.6a29,29,0,0,0-2.75-2.89,14.89,14.89,0,0,0-2.78-1.44l-3.1-1.19c-2.47-.83-6.19.22-7.67,2.32C688,672.12,686.79,672.81,687.13,674.19Z" transform="translate(-682.28 -473.99)"/><path class="cls-23" d="M777.3,713.79c-4-.59-8.11-1-12.11-1.81a100.63,100.63,0,0,1-28.36-10.55,79.6,79.6,0,0,1-14.2-9.64c-3-2.61-6-5.23-8.78-8.11a115.16,115.16,0,0,1-7.48-9c-2.69-3.48-5.8-6.18-10.34-6.88a8.67,8.67,0,0,0-6.75,1.75c-2.91,2.17-4.23,5.23-4.81,8.74-.49,2.89.83,5.19,2.16,7.48A138.18,138.18,0,0,0,699,703.46c1.07,1.33,2.2,2.62,3.36,3.88a135.27,135.27,0,0,0,21.29,18.76,126.14,126.14,0,0,0,20.79,12A121.33,121.33,0,0,0,770,746.46a14.54,14.54,0,0,1,2.18.78c0,.13-.07.27-.1.4a127.75,127.75,0,0,1-17.49-4.77,134.6,134.6,0,0,1-19.17-8.64,111.28,111.28,0,0,1-15.35-9.9c-3.45-2.67-6.74-5.57-10-8.45-1.89-1.65-3.72-3.38-5.45-5.21a120,120,0,0,1-12.27-14.91c-2.56-3.75-4.9-7.64-7.3-11.49s-1.17-10.79,1.77-13.47c1.7-1.54,3.25-3.21,5.65-3.6,4.17-.67,8,.13,11.05,3.13a77.48,77.48,0,0,1,5.7,6.89,94.51,94.51,0,0,0,10.71,11.39,90.18,90.18,0,0,0,16.58,11.84,132.18,132.18,0,0,0,13.21,6.17,89.49,89.49,0,0,0,17.88,5.1c3.31.62,6.67.91,10,1.35Z" transform="translate(-682.28 -473.99)"/><path class="cls-7" d="M686.42,679.22c1.91,3.27,3.67,6.63,5.76,9.78A135.91,135.91,0,0,0,701,701.22a148.49,148.49,0,0,0,11.72,12.47,109,109,0,0,0,19.49,14.59,118,118,0,0,0,26.27,11.77c4.41,1.33,8.93,2.32,13.4,3.45a6,6,0,0,0,1.2.06c-.14.56-.27,1.13-.4,1.7-2.87-.65-5.75-1.24-8.59-2a110.44,110.44,0,0,1-19.67-7A122.44,122.44,0,0,1,725,725.2a127.64,127.64,0,0,1-14.71-12.14,130.12,130.12,0,0,1-14-15.65,92,92,0,0,1-9.45-14.76A3.79,3.79,0,0,1,686.42,679.22Z" transform="translate(-682.28 -473.99)"/><path class="cls-24" d="M777.09,717.92a88.17,88.17,0,0,1-18.38-3.37A102.64,102.64,0,0,1,737.56,706a87.67,87.67,0,0,1-16-10.78,129.59,129.59,0,0,1-10.79-10.16c-3.33-3.62-6.16-7.7-9.2-11.58.29.09.67.1.87.29.94.92,1.88,1.84,2.73,2.85,2.11,2.48,4.06,5.11,6.27,7.51a94.44,94.44,0,0,0,11.25,10.36,105.9,105.9,0,0,0,14.83,9.79,96.34,96.34,0,0,0,21.14,8.54c4,1.07,8.13,1.83,12.22,2.64,2.13.43,4.31.65,6.46,1Z" transform="translate(-682.28 -473.99)"/><path class="cls-10" d="M686.42,679.22a3.79,3.79,0,0,0,.39,3.43,92,92,0,0,0,9.45,14.76,130.12,130.12,0,0,0,14,15.65A127.64,127.64,0,0,0,725,725.2a122.44,122.44,0,0,0,19.39,11.08,110.44,110.44,0,0,0,19.67,7c2.84.73,5.72,1.32,8.59,2l-.24,1c-3-.72-6.1-1.44-9.15-2.18a108.06,108.06,0,0,1-18.89-6.65,112.58,112.58,0,0,1-19.55-11.26c-3.87-2.78-7.59-5.78-11.23-8.85a121,121,0,0,1-20.38-22.51c-2.45-3.67-4.86-7.39-7.07-11.2a13.47,13.47,0,0,1-1.12-4.34c-.06-.35.44-.8.69-1.2Z" transform="translate(-682.28 -473.99)"/><path class="cls-16" d="M777.29,716.43c-2.15-.32-4.33-.54-6.46-1-4.09-.81-8.19-1.57-12.22-2.64a96.34,96.34,0,0,1-21.14-8.54,105.9,105.9,0,0,1-14.83-9.79,94.44,94.44,0,0,1-11.25-10.36c-2.21-2.4-4.16-5-6.27-7.51-.85-1-1.79-1.93-2.73-2.85-.2-.19-.58-.2-.87-.29l-1.45-2.41a10,10,0,0,1,1.64.82c1.09.8,2.12,1.69,3.18,2.55l7.92,9.6c1,1.06,2,2.14,3.07,3.17.53.51,1.15.93,1.73,1.39,1.87,1.65,3.67,3.4,5.63,4.94a105.08,105.08,0,0,0,19.57,12.1c1.18.62,2.32,1.35,3.55,1.86a92.92,92.92,0,0,0,17.94,5.71c4.32.83,8.69,1.36,13,2Z" transform="translate(-682.28 -473.99)"/><path class="cls-9" d="M777.33,715.23c-4.34-.66-8.71-1.19-13-2a92.92,92.92,0,0,1-17.94-5.71c-1.23-.51-2.37-1.24-3.55-1.86a2.89,2.89,0,0,1,.94.12,99.48,99.48,0,0,0,23.49,7.52c3.34.65,6.74,1,10.12,1.48Z" transform="translate(-682.28 -473.99)"/><path class="cls-25" d="M768.71,613.74c-.39-2.76-.84-5.51-1.16-8.28a147.54,147.54,0,0,1-1-22.73c.69-16.74,5.64-32,15.5-45.69a102.43,102.43,0,0,1,14.75-16.5c4.85-4.33,10-8.29,15.07-12.41a6.53,6.53,0,0,1,.85-.5l.24.25c-.68.84-1.34,1.69-2,2.53a100.23,100.23,0,0,0-17.62,31.38,82.33,82.33,0,0,0-4.21,20.7c-.27,4.3-.5,8.62-.41,12.92a140,140,0,0,0,2.19,20.92c.27,1.57.58,3.14.88,4.7a65.32,65.32,0,0,1-5.66,3.76C780.38,607.86,774.53,610.77,768.71,613.74Z" transform="translate(-682.28 -473.99)"/><path class="cls-25" d="M770.4,624.76c3.34-1.28,6.72-2.47,10-3.85,4.77-2,9.48-4.14,14.22-6.22q.6,2.5,1.21,5l4.8,19.72c-2.89,1.51-5.71,3.17-8.67,4.52-5.25,2.39-10.58,4.61-15.88,6.89a8.7,8.7,0,0,1-1.13.35Q772.69,638,770.4,624.76Z" transform="translate(-682.28 -473.99)"/><path class="cls-5" d="M773.7,651.66l-4.56-26.39,1.26-.51q2.28,13.2,4.58,26.4Z" transform="translate(-682.28 -473.99)"/><path class="cls-5" d="M800.66,639.4l-4.8-19.72q-.61-2.49-1.21-5l1.28-.5q3,12.24,5.93,24.49Z" transform="translate(-682.28 -473.99)"/><path class="cls-19" d="M882,588.28v.48l.24.48v.48l-.48.24c-.88-2.93-1.66-5.89-2.67-8.77A96.36,96.36,0,0,0,872,565.37a105.32,105.32,0,0,0-11.11-15.87A89,89,0,0,0,845.3,535a97.94,97.94,0,0,0-15.91-9.58c-2.15-1-4.33-2-6.43-3.1a11.31,11.31,0,0,1-2.51-2,1.94,1.94,0,0,1-.34-1.31c0-3,.13-6,.23-9a2.84,2.84,0,0,1,2.48-2.63c4.11-1,8.15-1.12,12.15.67,5.63,2.53,11.43,4.71,17,7.41a110.76,110.76,0,0,1,19.59,12.74,150,150,0,0,1,15.1,14,116.06,116.06,0,0,1,15,19.82,7.29,7.29,0,0,1,.5,1.33,3.73,3.73,0,0,1-.65-.6c-1.35-2-2.67-4.09-4-6.13a4.15,4.15,0,0,0-.84-.71v-.24l-1.2-1.44V554l-2.16-2.64v-.24l-2.88-3.36v-.24l-3.12-3.36-1-1a5.37,5.37,0,0,0-.72-1.29c-2-2.08-4.06-4.16-6.16-6.17-1.08-1-2.29-1.91-3.44-2.86h-.24a21.54,21.54,0,0,0-1.92-2c-1.4-1.14-2.88-2.19-4.32-3.27h-.24l-.72-.72h-.24c-.05-.15,0-.37-.14-.44-1.87-1.31-3.75-2.59-5.62-3.88h-.24a5.32,5.32,0,0,0-.87-.9c-1.61-1-3.2-2.09-4.87-3-3.18-1.71-6.41-3.33-9.62-5h-.72l-3.6-1.92h-.72a3.92,3.92,0,0,0-.83-.71q-3.78-1.53-7.59-3a4.59,4.59,0,0,0-1.18-.13h-.48c-.37-.24-.73-.65-1.12-.68a17.37,17.37,0,0,0-7.39.92,3.19,3.19,0,0,0-2.05,3.05c0,2.63,0,5.26,0,7.9a2.11,2.11,0,0,0,.64,1.53c1.8,1.19,3.7,2.25,5.57,3.36l1.2.24c.09.16.15.4.29.47,2.14,1.06,4.28,2.09,6.43,3.13h.24l1.44,1h.24l1,.72h.24l1,.72h.24l4.08,2.88h.24l.48.48h.24l.72.72h.24l.72.72h.24l.72.72h.24l1,1h.24l1,1h.24l3.36,3.12h.24l4.32,4.32.24.48,2.64,2.64v.24l1.2,1.2v.24l1.2,1.2v.24l1,1v.24l.72.72v.24l1.44,1.68v.24l1.2,1.44v.24l1.92,2.64V560l.48.48v.24l2.16,3.36v.24l1.44,2.4v.24l1.68,2.88.48,1.68,1,1.44v.72c.35.92.66,1.87,1.06,2.77a8.94,8.94,0,0,0,.86,1.31v.72c.53,1.62,1.05,3.25,1.6,4.86.09.25.37.44.56.66v.48l.48,1.2v.48l.48,1.2v.48Z" transform="translate(-682.28 -473.99)"/><path class="cls-19" d="M880.09,644.44l-1,3.84-.72,1.2v.72c-.15.1-.39.17-.44.31-.59,1.41-1.15,2.83-1.72,4.25v.72c-.16.09-.41.15-.48.29-1,2.14-2.08,4.28-3.12,6.43l-.24.72-1.2,1.92v.24l-.72,1v.24l-1.2,1.68v.24l-.48.48v.24l-.48.48v.24l-.48.48v.24l-1.2,1.44V672l-2.16,2.64v.24l-1.92,2.16v.24l-1.2,1.2v.24a4.62,4.62,0,0,0-1,.63c-2.26,2.3-4.5,4.63-6.73,7a3.78,3.78,0,0,0-.46.81H853l-1.68,1.68h-.24l-1.2,1.2h-.24l-1,1h-.24l-1.92,1.68h-.24l-.72.72h-.24l-1.44,1.2h-.24l-.48.48h-.24L840.25,697H840l-.48.48h-.24l-1,.72h-.24l-1,.72h-.24l-1.44,1h-.24l-2.88,1.68-2.4,1-1.92,1.2h-.72l-1,.72h-.72l-2.88,1.44H822c-1.62.53-3.25,1-4.86,1.6-.26.09-.44.37-.66.56h-1.2l-1.2.72h-.48l-.48.24h-.48l-.48.24h-.48l-.48.24h-.48l-.48.24h-.48l-.48.24h-.48l-.24-.48c2.25-.63,4.53-1.17,6.74-1.91,3.63-1.22,7.27-2.42,10.79-3.9a82.1,82.1,0,0,0,16.75-9.42c3.21-2.34,6.31-4.85,9.34-7.42a87.3,87.3,0,0,0,16.13-18.65,96.61,96.61,0,0,0,13.45-31.38,2.45,2.45,0,0,1,.24-.52l.48.24V637l-.24.48V638l-.24.48v.48l-.24.48v.48l-.24.48v.48l-.48,1.2v.48Z" transform="translate(-682.28 -473.99)"/><path class="cls-14" d="M893.29,551.08v.24l2.16,2.64v.24l1.2,1.44v.24a11.15,11.15,0,0,0,.59,1.14,123.38,123.38,0,0,1,11.21,19.8,6.13,6.13,0,0,0,.92,1.14v.24c.6,1.67,1.14,3.36,1.8,5a118.77,118.77,0,0,1,6.84,24q.51,3,.93,6a3.09,3.09,0,0,1-.21,1,1.26,1.26,0,0,1-.22-.41c-.56-3.4-1-6.81-1.68-10.2A116.17,116.17,0,0,0,907,574.85c-2.06-4.26-4.44-8.38-6.91-12.42a113,113,0,0,0-14.55-19.17c-2.24-2.34-4.58-4.58-6.85-6.88a8.32,8.32,0,0,1-.8-1.14,8.26,8.26,0,0,1,1.14.79c2.43,2.37,4.84,4.75,7.26,7.13l1,1,3.12,3.36v.24Z" transform="translate(-682.28 -473.99)"/><path class="cls-17" d="M909.37,578a6.13,6.13,0,0,1-.92-1.14A123.38,123.38,0,0,0,897.24,557a11.15,11.15,0,0,1-.59-1.14,4.15,4.15,0,0,1,.84.71c1.36,2,2.68,4.09,4,6.13a3.73,3.73,0,0,0,.65.6l.72,1.2.24.48.72,1.2.24.48,1,1.68,3.6,7.2.24.48Z" transform="translate(-682.28 -473.99)"/><path class="cls-26" d="M920.17,633.16v-12c.16.31.46.61.46.92q0,5.08,0,10.15C920.63,632.54,920.33,632.85,920.17,633.16Z" transform="translate(-682.28 -473.99)"/><path class="cls-26" d="M904.81,686.2c.28-.65.54-1.3.85-1.93,1-2.12,2-4.24,3.07-6.34.12-.25.42-.41.64-.61a25.07,25.07,0,0,1-.94,2.55c-.94,1.93-2,3.83-3,5.72C905.33,685.84,905,686,904.81,686.2Z" transform="translate(-682.28 -473.99)"/><ellipse class="cls-19" cx="202.49" cy="139.84" rx="0.51" ry="3.9"/><path class="cls-26" d="M880.81,717.16c.38-.42.74-.86,1.14-1.26.94-1,1.88-1.91,2.85-2.84a6.85,6.85,0,0,1,1.05-.7c-1,1.14-2,2.32-3.08,3.4A13.89,13.89,0,0,1,880.81,717.16Z" transform="translate(-682.28 -473.99)"/><path class="cls-19" d="M883.45,631.72v.72l-.24.72v.48l-.24.48v.72l-.24.48v.48H882l1-4.32Z" transform="translate(-682.28 -473.99)"/><path class="cls-17" d="M885.13,611.08h-.72v-2.16l.24-1.2a2.85,2.85,0,0,1,.46.9C885.17,609.43,885.13,610.26,885.13,611.08Z" transform="translate(-682.28 -473.99)"/><path class="cls-17" d="M884.41,616.6h.72c0,.82,0,1.64,0,2.45a2.79,2.79,0,0,1-.46.91l-.24-1.2Z" transform="translate(-682.28 -473.99)"/><path class="cls-26" d="M885.85,712.36a4.93,4.93,0,0,1,2.64-2.88Z" transform="translate(-682.28 -473.99)"/><path class="cls-26" d="M878.17,719.56l2.64-2.4A4.17,4.17,0,0,1,878.17,719.56Z" transform="translate(-682.28 -473.99)"/><path class="cls-19" d="M884.41,618.76l.24,1.2.24,1.68h-.72Z" transform="translate(-682.28 -473.99)"/><path class="cls-19" d="M884.65,607.72l-.24,1.2-.24-2.88h.72Z" transform="translate(-682.28 -473.99)"/><path class="cls-19" d="M883.93,627.64v2.16h-.72l.48-2.64Z" transform="translate(-682.28 -473.99)"/><path class="cls-19" d="M883.69,596.2v.72l-.48.48-.48-2.4h.48v.48Z" transform="translate(-682.28 -473.99)"/><path class="cls-26" d="M888.49,709.48a2.28,2.28,0,0,1,1.68-1.92Z" transform="translate(-682.28 -473.99)"/><path class="cls-19" d="M884.41,623.32l.24,1.2h-.72l.24-1.92Z" transform="translate(-682.28 -473.99)"/><path class="cls-17" d="M884.89,606h-.72v-1l.24-.72Z" transform="translate(-682.28 -473.99)"/><path class="cls-17" d="M884.41,623.32l-.24-.72v-1h.72Z" transform="translate(-682.28 -473.99)"/><path class="cls-26" d="M876.49,721l1.68-1.44Z" transform="translate(-682.28 -473.99)"/><path class="cls-19" d="M884.17,625.72l.24,1h-.72l.24-1.68Z" transform="translate(-682.28 -473.99)"/><path class="cls-17" d="M881.77,590l.48-.24.48,1.68-1-1Z" transform="translate(-682.28 -473.99)"/><path class="cls-19" d="M881.77,590.44l1,1v.48l-.48.24Z" transform="translate(-682.28 -473.99)"/><path class="cls-26" d="M890.17,707.56l1.2-1.44Z" transform="translate(-682.28 -473.99)"/><path class="cls-26" d="M875.05,722.2l1.44-1.2Z" transform="translate(-682.28 -473.99)"/><path class="cls-19" d="M884.41,604.36l-.24.72-.24-1.68h.48Z" transform="translate(-682.28 -473.99)"/><path class="cls-17" d="M884.41,603.4h-.48v-.72l.24-.48C884.92,602.46,884.73,602.92,884.41,603.4Z" transform="translate(-682.28 -473.99)"/><path class="cls-17" d="M884.17,600v1.2h-.48v-.72Z" transform="translate(-682.28 -473.99)"/><path class="cls-19" d="M905.05,568.36l-1-1.68Z" transform="translate(-682.28 -473.99)"/><path class="cls-19" d="M884.17,600l-.48.48-.24-1.2h.72Z" transform="translate(-682.28 -473.99)"/><path class="cls-26" d="M892.57,704.68l1-1.2Z" transform="translate(-682.28 -473.99)"/><path class="cls-17" d="M884.17,625.72l-.24-.72v-.48h.72Z" transform="translate(-682.28 -473.99)"/><path class="cls-26" d="M873.61,723.4l1.2-1Z" transform="translate(-682.28 -473.99)"/><path class="cls-26" d="M894.25,702.52l1-1.2Z" transform="translate(-682.28 -473.99)"/><path class="cls-19" d="M883.69,601.24h.48v1l-.24.48Z" transform="translate(-682.28 -473.99)"/><path class="cls-19" d="M883.93,597.88v.72l-.48.24-.24-1Z" transform="translate(-682.28 -473.99)"/><path class="cls-26" d="M845.29,740.68l1.2-.72Z" transform="translate(-682.28 -473.99)"/><path class="cls-17" d="M883.93,597.88h-.72v-.48l.48-.48Z" transform="translate(-682.28 -473.99)"/><path class="cls-17" d="M883.69,626.68h.72l-.48,1-.24-.48Z" transform="translate(-682.28 -473.99)"/><path class="cls-26" d="M897.61,698l.72-1Z" transform="translate(-682.28 -473.99)"/><path class="cls-26" d="M896.41,699.64l.72-1Z" transform="translate(-682.28 -473.99)"/><path class="cls-26" d="M868.57,727.24l1-.72Z" transform="translate(-682.28 -473.99)"/><path class="cls-26" d="M871.45,725.08l1-.72Z" transform="translate(-682.28 -473.99)"/><path class="cls-26" d="M903.61,688.36l.72-1Z" transform="translate(-682.28 -473.99)"/><path class="cls-19" d="M902.89,564.52l-.72-1.2Z" transform="translate(-682.28 -473.99)"/><path class="cls-19" d="M903.85,566.2l-.72-1.2Z" transform="translate(-682.28 -473.99)"/><path class="cls-17" d="M882.25,592.12l.48-.24v.72h-.48Z" transform="translate(-682.28 -473.99)"/><path class="cls-17" d="M882,635.8h.72l-.24.72-.48-.24Z" transform="translate(-682.28 -473.99)"/><path class="cls-17" d="M883.45,631.72l-.48-.24V631h.72Z" transform="translate(-682.28 -473.99)"/><path class="cls-19" d="M883.69,631H883l.24-.72.48.24Z" transform="translate(-682.28 -473.99)"/><path class="cls-17" d="M883.69,630.52l-.48-.24v-.48h.72Z" transform="translate(-682.28 -473.99)"/><path class="cls-17" d="M808.57,709.48l.24.48-.72.24v-.72Z" transform="translate(-682.28 -473.99)"/><path class="cls-17" d="M883.21,595h-.48v-.48l.24-.24Z" transform="translate(-682.28 -473.99)"/><path class="cls-17" d="M883.45,598.84l.48-.24.24.72h-.72Z" transform="translate(-682.28 -473.99)"/><path class="cls-17" d="M882.73,593.08l.24.72h-.48v-.48Z" transform="translate(-682.28 -473.99)"/><path class="cls-26" d="M872.89,724.12l.72-.72Z" transform="translate(-682.28 -473.99)"/><path class="cls-26" d="M870.73,725.8l.72-.72Z" transform="translate(-682.28 -473.99)"/><path class="cls-26" d="M869.77,726.52l.72-.72Z" transform="translate(-682.28 -473.99)"/><path class="cls-26" d="M895.21,701.08l.72-.72Z" transform="translate(-682.28 -473.99)"/><path class="cls-26" d="M891.85,705.4l.72-.72Z" transform="translate(-682.28 -473.99)"/><path class="cls-26" d="M900.73,693.16l.48-.72Z" transform="translate(-682.28 -473.99)"/><path class="cls-19" d="M882.73,593.08l-.24.24-.24-.72h.48Z" transform="translate(-682.28 -473.99)"/><path class="cls-26" d="M866.89,728.44l.72-.48Z" transform="translate(-682.28 -473.99)"/><path class="cls-19" d="M882.49,593.8H883v.48l-.24.24Z" transform="translate(-682.28 -473.99)"/><path class="cls-26" d="M850.33,738.28l.72-.48Z" transform="translate(-682.28 -473.99)"/><path class="cls-26" d="M847.93,739.48l.72-.48Z" transform="translate(-682.28 -473.99)"/><path class="cls-26" d="M843.61,741.4l.72-.48Z" transform="translate(-682.28 -473.99)"/><path class="cls-26" d="M841.93,742.12l.72-.48Z" transform="translate(-682.28 -473.99)"/><path class="cls-26" d="M840.73,742.6l.72-.48Z" transform="translate(-682.28 -473.99)"/><path class="cls-26" d="M891.37,706.12l.48-.72Z" transform="translate(-682.28 -473.99)"/><path class="cls-19" d="M908.89,576l-.24-.48Z" transform="translate(-682.28 -473.99)"/><path class="cls-26" d="M893.77,703l.48-.48Z" transform="translate(-682.28 -473.99)"/><path class="cls-26" d="M902.17,690.76l.48-.48Z" transform="translate(-682.28 -473.99)"/><path class="cls-26" d="M902.89,689.56l.48-.48Z" transform="translate(-682.28 -473.99)"/><path class="cls-26" d="M898.33,696.76l.48-.48Z" transform="translate(-682.28 -473.99)"/><path class="cls-26" d="M898.81,696l.48-.48Z" transform="translate(-682.28 -473.99)"/><path class="cls-26" d="M895.93,700.12l.48-.48Z" transform="translate(-682.28 -473.99)"/><path class="cls-26" d="M899.29,695.32l.48-.48Z" transform="translate(-682.28 -473.99)"/><path class="cls-26" d="M866.41,728.92l.48-.48Z" transform="translate(-682.28 -473.99)"/><path class="cls-26" d="M865.69,729.4l.48-.48Z" transform="translate(-682.28 -473.99)"/><path class="cls-26" d="M865,729.88l.48-.48Z" transform="translate(-682.28 -473.99)"/><path class="cls-26" d="M864.25,730.36l.48-.48Z" transform="translate(-682.28 -473.99)"/><path class="cls-26" d="M863.53,730.84l.48-.48Z" transform="translate(-682.28 -473.99)"/><path class="cls-26" d="M862.81,731.32l.48-.48Z" transform="translate(-682.28 -473.99)"/><path class="cls-26" d="M860.89,732.52l.48-.48Z" transform="translate(-682.28 -473.99)"/><path class="cls-26" d="M859.69,733.24l.48-.48Z" transform="translate(-682.28 -473.99)"/><path class="cls-26" d="M858.49,734l.48-.48Z" transform="translate(-682.28 -473.99)"/><path class="cls-26" d="M857.29,734.68l.48-.48Z" transform="translate(-682.28 -473.99)"/><path class="cls-26" d="M855.13,735.88l.48-.48Z" transform="translate(-682.28 -473.99)"/><path class="cls-26" d="M899.77,694.6l.48-.48Z" transform="translate(-682.28 -473.99)"/><path class="cls-26" d="M901.45,692l.48-.48Z" transform="translate(-682.28 -473.99)"/><path class="cls-26" d="M868.09,727.72l.48-.48Z" transform="translate(-682.28 -473.99)"/><path class="cls-25" d="M813.61,507.16l-.31.22-.06-.09.36-.14Z" transform="translate(-682.28 -473.99)"/><path class="cls-25" d="M813.6,507.15l.12-.13s0,.07,0,.08-.06,0-.1.06Z" transform="translate(-682.28 -473.99)"/><path class="cls-27" d="M828.49,512a2.57,2.57,0,0,1,3.3-1.31c2.7.83,5.39,1.69,8,2.69a96.12,96.12,0,0,1,21.82,11.75c3.94,2.82,7.79,5.79,11.49,8.91,3.13,2.64,6,5.6,9,8.44a5.06,5.06,0,0,1,.63,1,8.38,8.38,0,0,1-1.23-.89,125.73,125.73,0,0,0-24.39-19.83,86.27,86.27,0,0,0-25.16-11c-.9-.22-1.65-.24-2,.8Z" transform="translate(-682.28 -473.99)"/><path class="cls-14" d="M877.69,535.24c-1-.84-2.07-1.7-3.12-2.52-3.22-2.52-6.41-5.08-9.69-7.52A99.27,99.27,0,0,0,847,514.53c-5-2.29-10.2-4.31-15.4-6.15-2.53-.89-5.12-.11-7.38,1.35a1.19,1.19,0,0,0-.49,1.75l-1.2,1a2.71,2.71,0,0,1,1.53-3.75,12.82,12.82,0,0,1,7.83-.81h.48a1.69,1.69,0,0,0,.37.29l9.23,3.55h.72l3.6,1.92H847a6.91,6.91,0,0,0,1,.86c3.23,1.8,6.48,3.56,9.71,5.35,1.55.86,3.08,1.78,4.62,2.67h.24c0,.15,0,.36.14.44l5.62,3.88h.24l.72.72h.24c.81.77,1.58,1.59,2.44,2.3,1.24,1,2.53,2,3.8,3H876c.22.34.44.69.68,1S877.35,534.78,877.69,535.24Z" transform="translate(-682.28 -473.99)"/><path class="cls-18" d="M861.13,542.2a7.75,7.75,0,0,1-1.14-.8,121.12,121.12,0,0,0-17.33-14.31c-2.48-1.73-5-3.37-7.48-5.09a5.1,5.1,0,0,1-.93-1.16l9.6,5.52.49.47h0a19.27,19.27,0,0,0,1.58,1.68c3.44,2.92,6.92,5.78,10.35,8.72,1.44,1.24,2.79,2.59,4.16,3.92A5.23,5.23,0,0,1,861.13,542.2Z" transform="translate(-682.28 -473.99)"/><path class="cls-17" d="M831.85,507.88a12.82,12.82,0,0,0-7.83.81,2.71,2.71,0,0,0-1.53,3.75v2.16c-1.62,3.17-.44,6.15,3.16,8.07a20.91,20.91,0,0,1,1.88,1.29c-1.87-1.11-3.77-2.17-5.57-3.36a2.11,2.11,0,0,1-.64-1.53c-.07-2.64,0-5.27,0-7.9a3.19,3.19,0,0,1,2.05-3.05,17.37,17.37,0,0,1,7.39-.92C831.12,507.23,831.48,507.64,831.85,507.88Z" transform="translate(-682.28 -473.99)"/><path class="cls-15" d="M824.89,511.23c-.19-1,.57-1.34,1.22-1.67a9.08,9.08,0,0,1,8.17.08c.11.05.14.26.21.4-1-.28-1.89-.59-2.86-.82a6.7,6.7,0,0,0-4.61.64c-.5.24-.79.9-1.17,1.37Z" transform="translate(-682.28 -473.99)"/><path class="cls-8" d="M844.34,526.83l-.49-.47Z" transform="translate(-682.28 -473.99)"/><path class="cls-18" d="M862.33,684a29.63,29.63,0,0,1,1.87-2.67A99.88,99.88,0,0,0,873.94,668,109.52,109.52,0,0,0,882,651.55a97,97,0,0,0,5.4-18.79c.76-4.25,1.16-8.57,1.53-12.87a65.55,65.55,0,0,0,.22-9c-.21-4.15-.68-8.3-1.14-12.44A86.52,86.52,0,0,0,884,581.09a101.49,101.49,0,0,0-13-26.16c-1.86-2.67-4-5.19-5.93-7.78a2.78,2.78,0,0,1-.29-.63,20,20,0,0,1,2.1,2,107.31,107.31,0,0,1,9.79,14.55,101.53,101.53,0,0,1,7.75,17.34,89.6,89.6,0,0,1,4.35,18.42c.43,3.74.68,7.51,1,11.27a42,42,0,0,1,.22,5.6,132.89,132.89,0,0,1-1.55,15.51,111.55,111.55,0,0,1-7.18,24,98.61,98.61,0,0,1-13.23,22.38C866.17,679.8,864.2,681.88,862.33,684Z" transform="translate(-682.28 -473.99)"/><path class="cls-18" d="M855.85,690.52a4.93,4.93,0,0,1,2.88-2.64Z" transform="translate(-682.28 -473.99)"/><path class="cls-18" d="M864.73,546.28a2.29,2.29,0,0,1-1.68-1.92Z" transform="translate(-682.28 -473.99)"/><path class="cls-18" d="M860.41,686.2l1.44-1.68Z" transform="translate(-682.28 -473.99)"/><path class="cls-18" d="M862.81,544.12l-1.44-1.68Z" transform="translate(-682.28 -473.99)"/><path class="cls-18" d="M854.65,691.48l1-1Z" transform="translate(-682.28 -473.99)"/><path class="cls-15" d="M800.65,750.28c-.71-.21-1.62.47-2.16-.48C799.28,749.63,800.2,748.89,800.65,750.28Z" transform="translate(-682.28 -473.99)"/><path class="cls-21" d="M822.73,746.68l-2.64.72Z" transform="translate(-682.28 -473.99)"/><path class="cls-21" d="M805.21,749.56c-.27.75-.72.55-1.2.24Z" transform="translate(-682.28 -473.99)"/><path class="cls-21" d="M809.77,749.08c-.27.75-.72.55-1.2.24Z" transform="translate(-682.28 -473.99)"/><path class="cls-15" d="M835.21,510.28l1.2.48Z" transform="translate(-682.28 -473.99)"/><path class="cls-21" d="M816,748.12l-1,.24Z" transform="translate(-682.28 -473.99)"/><path class="cls-21" d="M814.57,748.36l-1,.24Z" transform="translate(-682.28 -473.99)"/><path class="cls-21" d="M813.13,748.6l-1,.24Z" transform="translate(-682.28 -473.99)"/><path class="cls-21" d="M807.61,749.32l-1,.24Z" transform="translate(-682.28 -473.99)"/><path class="cls-21" d="M811.45,748.84l-1,.24Z" transform="translate(-682.28 -473.99)"/><path class="cls-21" d="M801.85,749.8l-1,.48Z" transform="translate(-682.28 -473.99)"/><path class="cls-21" d="M819.61,747.4l-.72.24Z" transform="translate(-682.28 -473.99)"/><path class="cls-21" d="M818.41,747.64l-.72.24Z" transform="translate(-682.28 -473.99)"/><path class="cls-21" d="M817.21,747.88l-.72.24Z" transform="translate(-682.28 -473.99)"/><path class="cls-15" d="M837.13,511l.48.24Z" transform="translate(-682.28 -473.99)"/><path class="cls-15" d="M838.33,511.48l.48.24Z" transform="translate(-682.28 -473.99)"/><path class="cls-15" d="M839.53,512l.48.24Z" transform="translate(-682.28 -473.99)"/><path class="cls-21" d="M823.69,746.44l-.48.24Z" transform="translate(-682.28 -473.99)"/><path class="cls-17" d="M853.21,687.16a3.78,3.78,0,0,1,.46-.81c2.23-2.33,4.47-4.66,6.73-7a4.62,4.62,0,0,1,1-.63,25.63,25.63,0,0,1-1.77,2.34c-1.86,1.93-3.77,3.8-5.67,5.68A2.91,2.91,0,0,1,853.21,687.16Z" transform="translate(-682.28 -473.99)"/><path class="cls-17" d="M835.45,527.8c-2.15-1-4.29-2.07-6.43-3.13-.14-.07-.2-.31-.29-.47,2.14,1,4.29,2.07,6.43,3.12C835.3,527.39,835.35,527.63,835.45,527.8Z" transform="translate(-682.28 -473.99)"/><path class="cls-17" d="M872.65,662.2c1-2.15,2.07-4.29,3.12-6.43.07-.14.32-.2.48-.29-1,2.14-2.07,4.29-3.13,6.43C873.05,662.05,872.81,662.1,872.65,662.2Z" transform="translate(-682.28 -473.99)"/><path class="cls-17" d="M858,545.08l-4.32-4.32Z" transform="translate(-682.28 -473.99)"/><path class="cls-17" d="M843.85,533.08l-4.08-2.88Z" transform="translate(-682.28 -473.99)"/><path class="cls-17" d="M816.49,708c.22-.19.4-.47.66-.56,1.61-.56,3.24-1.07,4.86-1.6-.22.19-.4.46-.66.55C819.74,707,818.11,707.51,816.49,708Z" transform="translate(-682.28 -473.99)"/><path class="cls-17" d="M880.81,584c-.19-.22-.47-.41-.56-.66-.55-1.61-1.07-3.24-1.6-4.86.19.21.47.4.55.65C879.76,580.71,880.28,582.33,880.81,584Z" transform="translate(-682.28 -473.99)"/><path class="cls-17" d="M853.45,540.76l-3.36-3.12Z" transform="translate(-682.28 -473.99)"/><path class="cls-17" d="M876.25,654.76c.57-1.42,1.13-2.84,1.72-4.25,0-.14.29-.21.44-.31-.48,1.28-.94,2.58-1.47,3.85C876.83,654.33,876.49,654.52,876.25,654.76Z" transform="translate(-682.28 -473.99)"/><path class="cls-17" d="M860.89,548.2l-2.64-2.64Z" transform="translate(-682.28 -473.99)"/><path class="cls-17" d="M878.65,577.72a8.94,8.94,0,0,1-.86-1.31c-.4-.9-.71-1.85-1.06-2.77a7.68,7.68,0,0,1,.87,1.29C878,575.84,878.3,576.79,878.65,577.72Z" transform="translate(-682.28 -473.99)"/><path class="cls-17" d="M872.17,564,870,560.68Z" transform="translate(-682.28 -473.99)"/><path class="cls-17" d="M864.49,674.68l2.16-2.64Z" transform="translate(-682.28 -473.99)"/><path class="cls-17" d="M869.53,559.72l-1.92-2.64Z" transform="translate(-682.28 -473.99)"/><path class="cls-17" d="M840.25,697l2.64-1.92Z" transform="translate(-682.28 -473.99)"/><path class="cls-17" d="M875.29,569.8l-1.68-2.88Z" transform="translate(-682.28 -473.99)"/><path class="cls-17" d="M832.33,701.56l2.88-1.68Z" transform="translate(-682.28 -473.99)"/><path class="cls-17" d="M862.57,677.08l1.92-2.16Z" transform="translate(-682.28 -473.99)"/><path class="cls-17" d="M822.73,705.88l2.88-1.44Z" transform="translate(-682.28 -473.99)"/><path class="cls-17" d="M873.61,566.68l-1.44-2.4Z" transform="translate(-682.28 -473.99)"/><path class="cls-17" d="M846.49,692.68l1.92-1.68Z" transform="translate(-682.28 -473.99)"/><path class="cls-17" d="M851.29,688.84l1.68-1.68Z" transform="translate(-682.28 -473.99)"/><path class="cls-17" d="M871.21,664.84l1.2-1.92Z" transform="translate(-682.28 -473.99)"/><path class="cls-17" d="M866.41,555.16,865,553.48Z" transform="translate(-682.28 -473.99)"/><path class="cls-17" d="M828,703.72l1.92-1.2Z" transform="translate(-682.28 -473.99)"/><path class="cls-17" d="M869.29,668l1.2-1.68Z" transform="translate(-682.28 -473.99)"/><path class="cls-17" d="M880.09,644.44l1-1.92Z" transform="translate(-682.28 -473.99)"/><path class="cls-17" d="M866.65,671.8l1.2-1.44Z" transform="translate(-682.28 -473.99)"/><path class="cls-17" d="M843.85,694.6l1.44-1.2Z" transform="translate(-682.28 -473.99)"/><path class="cls-17" d="M867.61,556.84l-1.2-1.44Z" transform="translate(-682.28 -473.99)"/><path class="cls-17" d="M861.37,678.52l1.2-1.2Z" transform="translate(-682.28 -473.99)"/><path class="cls-17" d="M863.29,551.08l-1.2-1.2Z" transform="translate(-682.28 -473.99)"/><path class="cls-17" d="M862.09,549.64l-1.2-1.2Z" transform="translate(-682.28 -473.99)"/><path class="cls-17" d="M849.85,690l1.2-1.2Z" transform="translate(-682.28 -473.99)"/><path class="cls-17" d="M835.45,699.88l1.44-1Z" transform="translate(-682.28 -473.99)"/><path class="cls-17" d="M876.73,572.92l-1-1.44Z" transform="translate(-682.28 -473.99)"/><path class="cls-17" d="M837.13,528.76l-1.44-1Z" transform="translate(-682.28 -473.99)"/><path class="cls-17" d="M848.65,536.68l-1-1Z" transform="translate(-682.28 -473.99)"/><path class="cls-17" d="M849.85,537.64l-1-1Z" transform="translate(-682.28 -473.99)"/><path class="cls-17" d="M848.65,691l1-1Z" transform="translate(-682.28 -473.99)"/><path class="cls-17" d="M864.25,552.28l-1-1Z" transform="translate(-682.28 -473.99)"/><path class="cls-17" d="M878.41,649.48l.72-1.2Z" transform="translate(-682.28 -473.99)"/><path class="cls-17" d="M881.29,585.64l-.48-1.2Z" transform="translate(-682.28 -473.99)"/><path class="cls-17" d="M881.05,642l.48-1.2Z" transform="translate(-682.28 -473.99)"/><path class="cls-17" d="M814.09,708.76l1.2-.72Z" transform="translate(-682.28 -473.99)"/><path class="cls-17" d="M881.77,587.32l-.48-1.2Z" transform="translate(-682.28 -473.99)"/><path class="cls-17" d="M837.13,698.92l1-.72Z" transform="translate(-682.28 -473.99)"/><path class="cls-17" d="M838.33,529.48l-1-.72Z" transform="translate(-682.28 -473.99)"/><path class="cls-17" d="M839.53,530.2l-1-.72Z" transform="translate(-682.28 -473.99)"/><path class="cls-17" d="M870.49,666l.72-1Z" transform="translate(-682.28 -473.99)"/><path class="cls-17" d="M838.33,698.2l1-.72Z" transform="translate(-682.28 -473.99)"/><path class="cls-17" d="M826.33,704.44l1-.72Z" transform="translate(-682.28 -473.99)"/><path class="cls-17" d="M847.45,535.72l-.72-.72Z" transform="translate(-682.28 -473.99)"/><path class="cls-17" d="M846.49,535l-.72-.72Z" transform="translate(-682.28 -473.99)"/><path class="cls-17" d="M845.53,534.28l-.72-.72Z" transform="translate(-682.28 -473.99)"/><path class="cls-17" d="M845.53,693.4l.72-.72Z" transform="translate(-682.28 -473.99)"/><path class="cls-17" d="M865,553.24l-.72-.72Z" transform="translate(-682.28 -473.99)"/><path class="cls-17" d="M883.69,596.2l-.48-.72Z" transform="translate(-682.28 -473.99)"/><path class="cls-17" d="M883.93,629.08v0Z" transform="translate(-682.28 -473.99)"/><path class="cls-17" d="M883.21,633.16l.24-.72Z" transform="translate(-682.28 -473.99)"/><path class="cls-17" d="M812.17,709.24l.48-.24Z" transform="translate(-682.28 -473.99)"/><path class="cls-17" d="M811.21,709.48l.48-.24Z" transform="translate(-682.28 -473.99)"/><path class="cls-17" d="M810.25,709.72l.48-.24Z" transform="translate(-682.28 -473.99)"/><path class="cls-17" d="M809.29,710l.48-.24Z" transform="translate(-682.28 -473.99)"/><path class="cls-17" d="M882,588.28l-.24-.48Z" transform="translate(-682.28 -473.99)"/><path class="cls-17" d="M882.25,589.24l-.24-.48Z" transform="translate(-682.28 -473.99)"/><path class="cls-17" d="M881.77,639.4l.24-.48Z" transform="translate(-682.28 -473.99)"/><path class="cls-17" d="M839.53,697.48,840,697Z" transform="translate(-682.28 -473.99)"/><path class="cls-17" d="M870,560.44l-.48-.48Z" transform="translate(-682.28 -473.99)"/><path class="cls-17" d="M881.53,640.36l.24-.48Z" transform="translate(-682.28 -473.99)"/><path class="cls-17" d="M882.25,637.48l.24-.48Z" transform="translate(-682.28 -473.99)"/><path class="cls-17" d="M843.13,695.08l.48-.48Z" transform="translate(-682.28 -473.99)"/><path class="cls-17" d="M882,638.44l.24-.48Z" transform="translate(-682.28 -473.99)"/><path class="cls-17" d="M867.85,670.12l.48-.48Z" transform="translate(-682.28 -473.99)"/><path class="cls-17" d="M868.33,669.4l.48-.48Z" transform="translate(-682.28 -473.99)"/><path class="cls-17" d="M868.81,668.68l.48-.48Z" transform="translate(-682.28 -473.99)"/><path class="cls-17" d="M813.13,709l.48-.24Z" transform="translate(-682.28 -473.99)"/><path class="cls-17" d="M883,634.12l.24-.48Z" transform="translate(-682.28 -473.99)"/><path class="cls-17" d="M844.57,533.56l-.48-.48Z" transform="translate(-682.28 -473.99)"/><path class="cls-17" d="M882.73,635.32l.24-.48Z" transform="translate(-682.28 -473.99)"/><path class="cls-14" d="M919,637.24V617.08c.16.3.45.61.46.92.11,3.61.23,7.22.24,10.83,0,2.53-.13,5.07-.24,7.6C919.42,636.71,919.13,637,919,637.24Z" transform="translate(-682.28 -473.99)"/><path class="cls-14" d="M885.61,710.68l2.4-2.4Z" transform="translate(-682.28 -473.99)"/><path class="cls-14" d="M918.73,639.64l.24-1.92C919.23,638.4,919.62,639.1,918.73,639.64Z" transform="translate(-682.28 -473.99)"/><path class="cls-14" d="M919,616.6l-.24-1.92C919.62,615.22,919.23,615.91,919,616.6Z" transform="translate(-682.28 -473.99)"/><path class="cls-10" d="M687.13,674.19c-.34-1.38.83-2.07,1.46-3,1.48-2.1,5.2-3.15,7.67-2.32Z" transform="translate(-682.28 -473.99)"/><path class="cls-9" d="M704.89,674.44c-1.06-.86-2.09-1.75-3.18-2.55a10,10,0,0,0-1.64-.82l-.71-1a14.89,14.89,0,0,1,2.78,1.44A29,29,0,0,1,704.89,674.44Z" transform="translate(-682.28 -473.99)"/><path class="cls-27" d="M717.61,688.6c-.58-.46-1.2-.88-1.73-1.39-1-1-2-2.11-3.07-3.17.16,0,.38,0,.47,0Q715.46,686.33,717.61,688.6Z" transform="translate(-682.28 -473.99)"/><path class="cls-17" d="M862.33,522.52c-1.54-.89-3.07-1.81-4.62-2.67-3.23-1.79-6.48-3.55-9.71-5.35a6.91,6.91,0,0,1-1-.86c3.21,1.65,6.44,3.27,9.62,5,1.67.91,3.26,2,4.87,3A5.32,5.32,0,0,1,862.33,522.52Z" transform="translate(-682.28 -473.99)"/><path class="cls-17" d="M877.69,535.24c-.34-.46-.68-.91-1-1.37s-.46-.69-.68-1c1.15.95,2.36,1.83,3.44,2.86,2.1,2,4.13,4.09,6.16,6.17a5.37,5.37,0,0,1,.72,1.29c-2.42-2.38-4.83-4.76-7.26-7.13a8.26,8.26,0,0,0-1.14-.79Z" transform="translate(-682.28 -473.99)"/><path class="cls-17" d="M841.93,511.72l-9.23-3.55a1.69,1.69,0,0,1-.37-.29,4.59,4.59,0,0,1,1.18.13q3.81,1.47,7.59,3A3.92,3.92,0,0,1,841.93,511.72Z" transform="translate(-682.28 -473.99)"/><path class="cls-17" d="M875.77,532.84c-1.27-1-2.56-2-3.8-3-.86-.71-1.63-1.53-2.44-2.3,1.44,1.08,2.92,2.13,4.32,3.27A21.54,21.54,0,0,1,875.77,532.84Z" transform="translate(-682.28 -473.99)"/><path class="cls-17" d="M868.33,526.84,862.71,523c-.1-.08-.1-.29-.14-.44,1.87,1.29,3.75,2.57,5.62,3.88C868.29,526.47,868.28,526.69,868.33,526.84Z" transform="translate(-682.28 -473.99)"/><path class="cls-17" d="M890.41,547.48l-3.12-3.36Z" transform="translate(-682.28 -473.99)"/><path class="cls-17" d="M893.29,551.08l-2.88-3.36Z" transform="translate(-682.28 -473.99)"/><path class="cls-17" d="M846.25,513.64l-3.6-1.92Z" transform="translate(-682.28 -473.99)"/><path class="cls-17" d="M895.45,554l-2.16-2.64Z" transform="translate(-682.28 -473.99)"/><path class="cls-17" d="M896.65,555.64l-1.2-1.44Z" transform="translate(-682.28 -473.99)"/><path class="cls-17" d="M869.29,527.56l-.72-.72Z" transform="translate(-682.28 -473.99)"/></svg>